<svg width="728" height="90" viewBox="0 0 728 90" fill="none" xmlns="http://www.w3.org/2000/svg">
<path d="M410.115 72.3713C403.831 72.3713 398.342 71.3602 393.647 69.3378C388.952 67.2433 385.341 64.3542 382.813 60.6706C380.285 56.987 379.021 52.7257 379.021 47.8865C379.021 45.9364 379.238 43.8779 379.671 41.7111L379.996 40.3027C381.513 32.3577 385.124 26.2546 390.83 21.9932C396.608 17.6596 404.084 15.4928 413.257 15.4928C419.107 15.4928 424.344 16.4317 428.966 18.3096C433.661 20.1875 437.308 22.7877 439.908 26.1101C442.581 29.4326 443.917 33.1522 443.917 37.2692C443.917 38.3526 443.809 39.436 443.592 40.5194L443.484 40.9527H427.341L427.449 40.5194C427.521 40.1582 427.558 39.6165 427.558 38.8943C427.558 36.0774 426.221 33.8023 423.549 32.0688C420.877 30.3354 417.374 29.4687 413.04 29.4687C408.129 29.4687 404.156 30.5882 401.123 32.8272C398.161 34.994 396.32 38.172 395.597 42.3611L395.272 43.6612C395.056 44.7446 394.947 45.7919 394.947 46.8031C394.947 50.4144 396.32 53.2674 399.064 55.362C401.809 57.4565 405.673 58.5038 410.657 58.5038C414.846 58.5038 418.276 57.6732 420.949 56.012C423.621 54.3508 425.174 52.0756 425.608 49.1866L425.716 48.7532H442.184V49.1866C441.028 56.4092 437.597 62.079 431.891 66.196C426.185 70.3129 418.927 72.3713 410.115 72.3713Z" fill="black"/>
<path d="M448.807 30.3354L451.624 16.7929H514.353L511.428 30.3354H488.46L479.251 71.0713H463.216L472.425 30.3354H448.807Z" fill="black"/>
<path d="M581.62 57.6371L578.803 71.0713H571.111C568.15 71.0713 565.514 70.5296 563.202 69.4462C560.963 68.3628 559.266 66.846 558.11 64.8959C551.899 69.8795 543.809 72.3713 533.842 72.3713C526.836 72.3713 521.347 71.1074 517.375 68.5794C513.474 65.9793 511.524 62.4041 511.524 57.8538C511.524 56.4815 511.669 55.2175 511.958 54.0619C512.969 49.7283 515.28 46.5142 518.891 44.4196C522.575 42.2528 527.414 40.8805 533.409 40.3027L560.494 37.5942C560.638 34.8496 559.555 32.755 557.244 31.3105C554.932 29.7937 551.538 29.0353 547.06 29.0353C542.726 29.0353 539.187 29.7215 536.442 31.0938C533.698 32.4661 532.145 34.3079 531.784 36.6191L531.675 36.9441H515.641L515.749 36.6191C516.833 30.0465 520.227 24.8823 525.933 21.1265C531.712 17.3707 539.079 15.4928 548.035 15.4928C553.885 15.4928 558.941 16.3234 563.202 17.9846C567.464 19.5736 570.714 21.8849 572.953 24.9184C575.264 27.9519 576.42 31.4549 576.42 35.4274C576.42 36.7997 576.239 38.4609 575.878 40.411L573.061 53.3035C572.989 53.5924 572.953 53.9896 572.953 54.4952C572.953 56.5898 574.325 57.6371 577.07 57.6371H581.62ZM527.017 56.337C527.017 58.9372 529.942 60.2373 535.792 60.2373C540.27 60.2373 544.46 59.515 548.36 58.0705C552.332 56.6259 555.402 54.7119 557.569 52.3284L558.435 48.3198L534.817 50.8117C532.073 51.1006 530.086 51.6784 528.859 52.5451C527.631 53.4118 527.017 54.6758 527.017 56.337Z" fill="black"/>
<path d="M627.895 15.4928C633.312 15.4928 638.079 16.5401 642.196 18.6347C646.313 20.657 649.491 23.51 651.73 27.1935C653.969 30.8049 655.089 34.9218 655.089 39.5443C655.089 41.4222 654.944 43.1195 654.655 44.6363L654.33 46.153C652.886 54.3147 649.275 60.7428 643.496 65.4376C637.718 70.0601 630.351 72.3713 621.395 72.3713C617.278 72.3713 613.522 71.7935 610.128 70.6379C606.733 69.41 603.844 67.7127 601.461 65.5459L596.152 89.4891H580.226L596.369 16.7929H610.453L610.128 21.2348C615.4 17.4068 621.323 15.4928 627.895 15.4928ZM638.729 43.5529C638.874 42.9751 638.946 42.1083 638.946 40.9527C638.946 37.4136 637.646 34.6329 635.046 32.6105C632.518 30.516 628.979 29.4687 624.429 29.4687C621.251 29.4687 618.217 30.0104 615.328 31.0938C612.439 32.1772 610.019 33.6939 608.069 35.6441L604.602 51.6784C605.975 53.7007 608.069 55.3258 610.886 56.5537C613.703 57.7815 616.881 58.3955 620.42 58.3955C625.331 58.3955 629.34 57.2398 632.446 54.9286C635.624 52.6173 637.574 49.3671 638.296 45.178L638.729 43.5529Z" fill="black"/>
<path d="M661.958 30.3354L664.775 16.7929H727.504L724.579 30.3354H701.611L692.402 71.0713H676.368L685.576 30.3354H661.958Z" fill="black"/>
<path d="M45.0695 0C53.4478 0 60.0565 2.02235 64.8957 6.06704C69.7349 10.1117 72.1545 15.6371 72.1545 22.6431V23.8348C72.1545 30.913 69.7349 36.4745 64.8957 40.5192C60.0565 44.5639 53.4478 46.5862 45.0695 46.5862H16.251V71.0711H0V0H45.0695ZM44.6361 32.177C48.1752 32.177 50.8837 31.4909 52.7616 30.1185C54.6395 28.674 55.5785 26.5794 55.5785 23.8348V22.6431C55.5785 19.9707 54.6395 17.9483 52.7616 16.576C50.8837 15.1315 48.1752 14.4092 44.6361 14.4092H16.251V32.177H44.6361Z" fill="#1300F0"/>
<path d="M96.7931 16.7927V52.0032L128.97 16.7927H143.163V71.0711H128.103V35.8606L95.9263 71.0711H81.7338V16.7927H96.7931Z" fill="#1300F0"/>
<path d="M212.089 43.4444C217.361 45.7556 219.997 49.5114 219.997 54.7117V55.7951C219.997 60.7066 218.047 64.4985 214.147 67.1709C210.247 69.771 204.649 71.0711 197.354 71.0711H155.968V16.7927H195.729C203.024 16.7927 208.658 18.0928 212.63 20.693C216.603 23.2931 218.589 27.0128 218.589 31.852V32.9354C218.589 37.6301 216.422 41.1331 212.089 43.4444ZM171.678 28.2768V38.2441H194.646C197.174 38.2441 199.088 37.8468 200.388 37.0523C201.688 36.2578 202.338 35.1383 202.338 33.6938V32.6104C202.338 29.7213 199.774 28.2768 194.646 28.2768H171.678ZM203.855 53.845C203.855 52.4005 203.169 51.281 201.796 50.4865C200.496 49.692 198.618 49.2947 196.163 49.2947H171.678V59.5871H196.163C201.291 59.5871 203.855 58.0342 203.855 54.9284V53.845Z" fill="#1300F0"/>
<path d="M293.556 48.5364H245.236C245.742 51.931 247.403 54.5312 250.22 56.3368C253.037 58.1425 256.829 59.0453 261.596 59.0453C265.929 59.0453 269.468 58.4675 272.213 57.3119C274.958 56.1563 276.547 54.5673 276.98 52.5449H293.448C292.653 58.9009 289.475 63.8123 283.914 67.2792C278.425 70.6738 270.985 72.3712 261.596 72.3712C254.951 72.3712 249.173 71.2878 244.261 69.121C239.35 66.882 235.594 63.704 232.994 59.5871C230.394 55.4701 229.094 50.6309 229.094 45.0695V43.011C229.094 37.3773 230.394 32.502 232.994 28.3851C235.666 24.1959 239.422 21.018 244.261 18.8512C249.173 16.6121 254.951 15.4926 261.596 15.4926C271.708 15.4926 279.544 17.9122 285.106 22.7514C290.739 27.5184 293.556 34.2355 293.556 42.9027V48.5364ZM261.487 28.6018C257.298 28.6018 253.831 29.3602 251.087 30.8769C248.342 32.3937 246.536 34.5244 245.67 37.269H276.98C276.113 34.5244 274.344 32.3937 271.671 30.8769C268.999 29.3602 265.604 28.6018 261.487 28.6018Z" fill="#1300F0"/>
<path d="M337.94 15.4926C344.296 15.4926 349.857 16.6483 354.624 18.9595C359.391 21.1985 363.038 24.4487 365.566 28.7101C368.167 32.8993 369.467 37.7746 369.467 43.336V44.4194C369.467 49.9809 368.167 54.8923 365.566 59.1537C362.966 63.3428 359.283 66.593 354.516 68.9043C349.821 71.2156 344.296 72.3712 337.94 72.3712C331.006 72.3712 325.119 70.6016 320.28 67.0625V89.4889H304.571V16.7927H319.197L319.63 21.4513C324.758 17.4789 330.861 15.4926 337.94 15.4926ZM353.216 43.336C353.216 39.0747 351.735 35.7522 348.774 33.3687C345.812 30.9853 341.695 29.7935 336.423 29.7935C332.956 29.7935 329.778 30.3352 326.889 31.4186C324.072 32.4298 321.869 33.8743 320.28 35.7522V52.0032C321.941 53.8811 324.18 55.3618 326.997 56.4452C329.886 57.5286 333.028 58.0703 336.423 58.0703C341.695 58.0703 345.812 56.8786 348.774 54.4951C351.735 52.1116 353.216 48.753 353.216 44.4194V43.336Z" fill="#1300F0"/>
</svg>
